@startuml

skinparam state {
  FontStyle bold
}

note "chronometer state diagram" as TITLENOTE

[*] -> ready
state ready {
    ready --> running : watch.start 

}

state running {
    running --> paused : watch.split 

    running --> stopped : watch.stop 

}

state paused {
    paused --> running : watch.unsplit 

    paused --> stopped : watch.stop 

}

state stopped {
    stopped --> ready : watch.reset 

}

@enduml

